<?xml version="1.0" encoding="UTF-8" standalone="no"?>
<!-- Created with Inkscape (http://www.inkscape.org/) -->

<svg
   xmlns:dc="http://purl.org/dc/elements/1.1/"
   xmlns:cc="http://creativecommons.org/ns#"
   xmlns:rdf="http://www.w3.org/1999/02/22-rdf-syntax-ns#"
   xmlns:svg="http://www.w3.org/2000/svg"
   xmlns="http://www.w3.org/2000/svg"
   xmlns:sodipodi="http://sodipodi.sourceforge.net/DTD/sodipodi-0.dtd"
   xmlns:inkscape="http://www.inkscape.org/namespaces/inkscape"
   width="84mm"
   height="298mm"
   viewBox="0 0 84 298"
   version="1.1"
   id="svg188"
   inkscape:version="0.92.3 (2405546, 2018-03-11)"
   sodipodi:docname="doctor2.svg">
  <defs
     id="defs182" />
  <sodipodi:namedview
     id="base"
     pagecolor="#ffffff"
     bordercolor="#666666"
     borderopacity="1.0"
     inkscape:pageopacity="0.0"
     inkscape:pageshadow="2"
     inkscape:zoom="0.35"
     inkscape:cx="-72.857143"
     inkscape:cy="560"
     inkscape:document-units="mm"
     inkscape:current-layer="layer1"
     showgrid="false"
     inkscape:window-width="1366"
     inkscape:window-height="706"
     inkscape:window-x="-8"
     inkscape:window-y="-8"
     inkscape:window-maximized="1" />
  <metadata
     id="metadata185">
    <rdf:RDF>
      <cc:Work
         rdf:about="">
        <dc:format>image/svg+xml</dc:format>
        <dc:type
           rdf:resource="http://purl.org/dc/dcmitype/StillImage" />
        <dc:title></dc:title>
      </cc:Work>
    </rdf:RDF>
  </metadata>
  <g
     inkscape:label="Layer 1"
     inkscape:groupmode="layer"
     id="layer1"
     transform="translate(0,1)">
    <g
       transform="matrix(0.26458333,0,0,0.26458333,-116.41667,-12.184468)"
       id="g110">
      <path
         style="fill:#253847"
         inkscape:connector-curvature="0"
         d="m 646.492,273.721 h -92.984 c -24.409,0 -44.197,-19.788 -44.197,-44.197 V 122.887 c 0,-24.409 19.788,-44.197 44.197,-44.197 h 92.984 c 24.409,0 44.197,19.788 44.197,44.197 v 106.638 c 0,24.409 -19.788,44.196 -44.197,44.196 z"
         id="path2" />
      <g
         id="g8">
        <path
           style="fill:#f49b8f"
           inkscape:connector-curvature="0"
           d="m 676.915,172.373 c 0,0 19.309,-4.516 19.25,23.142 -0.059,27.658 -27.717,25.4 -29.975,18.062 -2.257,-7.337 10.725,-41.204 10.725,-41.204 z"
           id="path4" />
        <path
           style="fill:#f49b8f"
           inkscape:connector-curvature="0"
           d="m 523.085,172.373 c 0,0 -19.309,-4.516 -19.25,23.142 0.059,27.658 27.717,25.4 29.975,18.062 2.257,-7.337 -10.725,-41.204 -10.725,-41.204 z"
           id="path6" />
      </g>
      <path
         style="fill:#3e5790"
         inkscape:connector-curvature="0"
         d="M 592.475,1124.176 V 725.251 c 0,-4.208 3.412,-7.62 7.62,-7.62 4.208,0 7.62,3.412 7.62,7.62 v 398.925 l 43.989,-16.651 38.985,-462.143 H 508.833 l 38.985,462.143 z"
         id="path10" />
      <path
         style="fill:#2e4987"
         inkscape:connector-curvature="0"
         d="M 680.529,457.433 697.463,310.098 625.505,288.91 c -15.883,-6.116 -33.471,-6.116 -49.354,0 l -73.424,21.752 16.934,147.335 c -33.867,83.552 -10.383,187.384 -10.383,187.384 h 73.037 35.56 72.532 c 0,10e-4 23.989,-104.395 -9.878,-187.948 z"
         id="path12" />
      <g
         id="g26">
        <g
           id="g18">
          <path
             style="fill:#253847"
             inkscape:connector-curvature="0"
             d="m 706.477,1141.779 -55.582,-25.646 0.739,-8.127 c -15.329,2.878 -30.354,6.89 -43.92,13.19 v 22.313 c 0,3.585 2.906,6.491 6.491,6.491 h 90.015 c 4.494,0 6.121,-5.927 2.257,-8.221 z"
             id="path14" />
          <path
             style="fill:#ffffff"
             inkscape:connector-curvature="0"
             d="m 650.895,1116.133 -41.697,18.777 c -2.301,0.996 -4.87,-0.691 -4.87,-3.199 v -17.887 c 0,-1.622 1.119,-3.03 2.699,-3.396 l 45.04,-10.823 c 1.861,-0.431 3.489,1.315 2.93,3.141 z"
             id="path16" />
        </g>
        <g
           id="g24">
          <path
             style="fill:#253847"
             inkscape:connector-curvature="0"
             d="m 493.045,1141.779 55.582,-25.646 -0.739,-8.127 c 15.329,2.878 30.354,6.89 43.92,13.19 v 22.313 c 0,3.585 -2.906,6.491 -6.491,6.491 h -90.015 c -4.494,0 -6.121,-5.927 -2.257,-8.221 z"
             id="path20" />
          <path
             style="fill:#ffffff"
             inkscape:connector-curvature="0"
             d="m 548.627,1116.133 41.697,18.777 c 2.301,0.996 4.87,-0.691 4.87,-3.199 v -17.887 c 0,-1.622 -1.119,-3.03 -2.699,-3.396 l -45.04,-10.823 c -1.861,-0.431 -3.489,1.315 -2.93,3.141 z"
             id="path22" />
        </g>
      </g>
      <path
         style="fill:#253847"
         inkscape:connector-curvature="0"
         d="M 688.764,653.849 H 510.758 c -3.13,0 -5.667,-2.537 -5.667,-5.667 v -7.858 c 0,-3.13 2.537,-5.667 5.667,-5.667 h 178.006 c 3.13,0 5.667,2.537 5.667,5.667 v 7.858 c 0,3.129 -2.537,5.667 -5.667,5.667 z"
         id="path28" />
      <path
         style="fill:#ded2d4"
         inkscape:connector-curvature="0"
         d="m 618.486,656.953 h -37.45 c -1.933,0 -3.5,-1.567 -3.5,-3.5 v -18.4 c 0,-1.933 1.567,-3.5 3.5,-3.5 h 37.45 c 1.933,0 3.5,1.567 3.5,3.5 v 18.4 c 0,1.933 -1.567,3.5 -3.5,3.5 z"
         id="path30" />
      <g
         id="g60">
        <g
           id="g44">
          <g
             id="g36">
            <path
               style="fill:#f7b4ab"
               inkscape:connector-curvature="0"
               d="m 471.911,680.519 c 0,0 -11.642,27.729 -9.948,45.509 1.694,17.78 12.806,45.615 29.739,49.001 16.934,3.387 13.189,-16.14 13.189,-16.14 0,0 -21.297,-16.564 -23.553,-31.156 -2.256,-14.591 2.307,-20.531 2.307,-20.531 0,0 7.941,27.934 14.398,29.627 6.458,1.693 11.189,-13.973 3.745,-33.447 -7.444,-19.474 -9.134,-39.374 -9.134,-39.374 h -20.32 z"
               id="path32" />
            <path
               style="fill:#d0bfc2"
               inkscape:connector-curvature="0"
               d="m 487.574,311.792 c 0,0 -23.31,18.768 -27.826,56.022 -4.516,37.254 0.168,318.209 0.168,318.209 h 41.205 c 0,-10e-4 15.148,-322.02 -13.547,-374.231 z"
               id="path34" />
          </g>
          <path
             style="fill:#ded2d4"
             inkscape:connector-curvature="0"
             d="m 545.148,296.552 v 599.446 h -38.947 c 0,0 -37.752,-254.567 -8.151,-456.64 L 487.574,311.792 Z"
             id="path38" />
          <path
             style="fill:#d0bfc2"
             inkscape:connector-curvature="0"
             d="m 574.097,288.454 -4.425,-11.272 c 0,0 -29.71,-0.95 -38.177,34.61 -8.467,35.56 -15.562,66.041 -15.562,66.041 l 26.251,2.54 -18.692,11.007 20.688,120.228 c 0,0 8.305,-92.57 18.747,-147.321 9.847,-51.626 11.17,-75.833 11.17,-75.833 z"
             id="path40" />
          <path
             style="fill:#d0bfc2"
             inkscape:connector-curvature="0"
             d="m 534.487,612.104 -56.107,17.264 -4.98,-16.185 46.549,-14.323 c 5.279,-1.624 10.874,1.338 12.499,6.617 z"
             id="path42" />
        </g>
        <g
           id="g58">
          <g
             id="g50">
            <path
               style="fill:#f7b4ab"
               inkscape:connector-curvature="0"
               d="m 728.089,680.519 c 0,0 11.642,27.729 9.948,45.509 -1.693,17.78 -12.806,45.615 -29.739,49.001 -16.933,3.387 -13.189,-16.14 -13.189,-16.14 0,0 21.297,-16.564 23.553,-31.156 2.256,-14.591 -2.307,-20.531 -2.307,-20.531 0,0 -7.941,27.934 -14.398,29.627 -6.458,1.693 -11.189,-13.973 -3.745,-33.447 7.444,-19.474 9.134,-39.374 9.134,-39.374 h 20.32 z"
               id="path46" />
            <path
               style="fill:#d0bfc2"
               inkscape:connector-curvature="0"
               d="m 712.426,311.792 c 0,0 23.31,18.768 27.826,56.022 4.516,37.254 -0.168,318.209 -0.168,318.209 h -41.205 c 0,-10e-4 -15.148,-322.02 13.547,-374.231 z"
               id="path48" />
          </g>
          <path
             style="fill:#ded2d4"
             inkscape:connector-curvature="0"
             d="m 655.693,296.552 v 599.446 h 38.106 c 0,0 37.752,-254.567 8.151,-456.64 l 10.896,-127.566 z"
             id="path52" />
          <path
             style="fill:#d0bfc2"
             inkscape:connector-curvature="0"
             d="m 625.903,288.454 4.425,-11.272 c 0,0 29.71,-0.95 38.177,34.61 8.467,35.56 15.562,66.041 15.562,66.041 l -26.251,2.54 18.692,11.007 -20.688,120.228 c 0,0 -8.305,-92.57 -18.747,-147.321 -9.847,-51.626 -11.17,-75.833 -11.17,-75.833 z"
             id="path54" />
          <path
             style="fill:#d0bfc2"
             inkscape:connector-curvature="0"
             d="m 665.513,612.104 56.107,17.264 4.98,-16.185 -46.549,-14.323 c -5.279,-1.624 -10.874,1.338 -12.499,6.617 z"
             id="path56" />
        </g>
      </g>
      <g
         id="g82">
        <g
           id="g64">
          <path
             style="fill:#253847"
             inkscape:connector-curvature="0"
             d="m 654.643,508.22 c -2.805,0 -5.08,-2.275 -5.08,-5.08 V 328.822 c 0,-28.655 -23.313,-51.969 -51.968,-51.969 -28.655,0 -51.969,23.313 -51.969,51.969 0,2.805 -2.275,5.08 -5.08,5.08 -2.805,0 -5.08,-2.275 -5.08,-5.08 0,-34.258 27.871,-62.129 62.128,-62.129 34.258,0 62.129,27.871 62.129,62.129 V 503.14 c 0,2.806 -2.275,5.08 -5.08,5.08 z"
             id="path62" />
        </g>
        <circle
           style="fill:#253847"
           cx="654.64301"
           cy="504.83401"
           r="19.113001"
           id="circle66" />
        <circle
           style="fill:#ffffff"
           cx="654.64301"
           cy="504.83401"
           r="9.2390003"
           id="circle68" />
        <g
           id="g72">
          <path
             style="fill:#ffffff"
             inkscape:connector-curvature="0"
             d="M 515.81,454.598 H 508 c -2.805,0 -5.08,-2.275 -5.08,-5.08 v -85.574 c 0,-2.805 2.275,-5.08 5.08,-5.08 2.805,0 5.08,2.275 5.08,5.08 v 80.494 h 2.73 c 2.805,0 5.08,2.275 5.08,5.08 0,2.805 -2.274,5.08 -5.08,5.08 z"
             id="path70" />
        </g>
        <g
           id="g76">
          <path
             style="fill:#ffffff"
             inkscape:connector-curvature="0"
             d="m 573.091,454.598 h -7.809 c -2.805,0 -5.08,-2.275 -5.08,-5.08 0,-2.805 2.275,-5.08 5.08,-5.08 h 2.729 v -80.494 c 0,-2.805 2.275,-5.08 5.08,-5.08 2.805,0 5.08,2.275 5.08,5.08 v 85.574 c 0,2.805 -2.275,5.08 -5.08,5.08 z"
             id="path74" />
        </g>
        <g
           id="g80">
          <path
             style="fill:#253847"
             inkscape:connector-curvature="0"
             d="m 573.091,366.817 c -2.805,0 -5.08,-2.275 -5.08,-5.08 0,-15.144 -12.321,-27.466 -27.465,-27.466 -15.144,0 -27.466,12.321 -27.466,27.466 0,2.805 -2.275,5.08 -5.08,5.08 -2.805,0 -5.08,-2.275 -5.08,-5.08 0,-20.747 16.879,-37.626 37.626,-37.626 20.747,0 37.625,16.879 37.625,37.626 0,2.805 -2.275,5.08 -5.08,5.08 z"
             id="path78" />
        </g>
      </g>
      <g
         id="g88">
        <path
           style="fill:#f49b8f"
           inkscape:connector-curvature="0"
           d="m 642.267,247.445 -25.425,64.713 c -5.839,14.852 -27.896,14.825 -33.728,-0.03 l -25.382,-64.683 z"
           id="path84" />
        <path
           style="fill:#f7b4ab"
           inkscape:connector-curvature="0"
           d="m 634.365,281.717 h -68.729 c -24.409,0 -44.197,-19.788 -44.197,-44.197 V 123.142 c 0,-24.409 19.788,-44.197 44.197,-44.197 h 68.729 c 24.409,0 44.197,19.788 44.197,44.197 V 237.52 c 0,24.409 -19.788,44.197 -44.197,44.197 z"
           id="path86" />
      </g>
      <path
         style="fill:#253847"
         inkscape:connector-curvature="0"
         d="m 701.101,162.808 c -3.975,-0.551 -9.873,-5.25 -10.976,-27.689 -1.475,-29.997 -23.086,-50.14 -28.629,-54.831 -0.748,-0.633 -0.947,-1.699 -0.492,-2.568 l 2.906,-5.547 c 0.848,-1.618 -0.625,-3.474 -2.391,-3.007 -3.764,0.995 -8.833,2.335 -11.183,2.956 -0.795,0.21 -1.623,-0.08 -2.145,-0.716 C 619.057,35.93 561.18,53.604 541.89,60.843 c -1.965,0.737 -1.736,3.583 0.318,4.017 l 14.036,2.969 c 2.051,0.434 2.283,3.309 0.309,4.017 -28.304,10.15 -39.613,42.735 -44.647,58.757 -3.481,11.079 -9.175,18.311 -12.884,22.127 -1.259,1.295 -0.425,3.46 1.378,3.564 1.817,0.105 2.649,2.314 1.353,3.592 l -4.263,4.206 c -1.028,1.014 -0.75,2.739 0.544,3.378 l 6.672,3.298 c 1.122,0.555 1.513,1.962 0.838,3.016 l -1.778,2.775 c -0.993,1.55 0.35,3.518 2.164,3.203 4.047,-0.702 7.442,-1.87 10.299,-3.36 0.169,11.761 1.002,29.962 4.535,30.469 5.229,0.751 5.925,-40.285 5.925,-40.285 h -0.09 c 3.564,-6.116 4.259,-12.939 4.217,-17.555 -0.016,-1.767 2.068,-2.761 3.425,-1.629 6.771,5.648 22.974,15.233 52.59,11.987 41.205,-4.516 55.437,-48.543 55.437,-48.543 2.418,46.582 18.099,65.298 31.72,72.725 0.015,6.996 0.497,22.917 4.575,23.303 3.474,0.329 4.946,-11.487 5.544,-19.462 2.446,0.554 4.622,0.802 6.358,0.886 1.808,0.087 2.847,-2.035 1.697,-3.434 l -1.625,-1.977 c -0.978,-1.19 -0.386,-2.993 1.107,-3.37 l 6.016,-1.522 c 1.732,-0.438 2.161,-2.701 0.71,-3.742 l -2.424,-1.74 c -1.463,-1.051 -0.984,-3.3 0.767,-3.725 2.392,-0.581 4.077,-1.374 5.264,-2.209 1.521,-1.07 0.968,-3.515 -0.876,-3.771 z"
         id="path90" />
      <g
         id="g96">
        <circle
           style="fill:#253847"
           cx="564.02399"
           cy="190.159"
           r="8.467"
           id="circle92" />
        <circle
           style="fill:#253847"
           cx="635.97601"
           cy="190.159"
           r="8.467"
           id="circle94" />
      </g>
      <path
         style="fill:#253847"
         inkscape:connector-curvature="0"
         d="m 605.431,218.272 -4.378,-1.421 c -0.685,-0.222 -1.423,-0.222 -2.108,0 l -4.378,1.421 c -0.247,0.08 -0.496,0.13 -0.755,0.153 -3.742,0.336 -34.46,4.045 -37.738,35.377 -0.202,1.931 1.281,3.628 3.219,3.736 7.631,0.424 26.156,-0.661 37.86,-19.108 1.309,-2.064 4.381,-2.064 5.691,0 11.704,18.447 30.229,19.532 37.86,19.108 1.939,-0.108 3.422,-1.805 3.219,-3.736 -3.278,-31.332 -33.997,-35.041 -37.739,-35.377 -0.256,-0.023 -0.506,-0.073 -0.753,-0.153 z"
         id="path98" />
      <path
         style="fill:#f49b8f"
         inkscape:connector-curvature="0"
         d="m 615.046,206.882 c 0,0 -2.928,-31.828 -14.559,-32.675 -11.63,-0.847 -22.71,43.18 -9.616,52.071 13.095,8.89 24.175,0.846 24.175,-19.396 z"
         id="path100" />
      <g
         id="g104">
        <path
           style="fill:#253847"
           inkscape:connector-curvature="0"
           d="m 624.095,176.138 c -1.245,0 -2.479,-0.547 -3.315,-1.597 -1.456,-1.829 -1.153,-4.492 0.676,-5.948 12.001,-9.548 24.438,-4.777 29.336,-0.919 1.836,1.447 2.153,4.109 0.706,5.946 -1.442,1.829 -4.089,2.15 -5.924,0.723 -0.947,-0.722 -9.346,-6.684 -18.846,0.876 -0.778,0.618 -1.708,0.919 -2.633,0.919 z"
           id="path102" />
      </g>
      <g
         id="g108">
        <path
           style="fill:#253847"
           inkscape:connector-curvature="0"
           d="m 551.986,176.138 c -1.245,0 -2.479,-0.547 -3.315,-1.597 -1.456,-1.83 -1.153,-4.493 0.676,-5.948 12.001,-9.548 24.438,-4.777 29.337,-0.919 1.836,1.447 2.153,4.109 0.706,5.946 -1.441,1.829 -4.086,2.15 -5.924,0.723 -0.947,-0.722 -9.343,-6.684 -18.847,0.876 -0.779,0.618 -1.709,0.919 -2.633,0.919 z"
           id="path106" />
      </g>
    </g>
  </g>
</svg>
